<?xml version="1.0" encoding="utf-8"?>
<!-- Generator: Adobe Illustrator 24.1.2, SVG Export Plug-In . SVG Version: 6.00 Build 0)  -->
<svg version="1.1" id="Layer_1" xmlns="http://www.w3.org/2000/svg" xmlns:xlink="http://www.w3.org/1999/xlink" x="0px" y="0px"
	 viewBox="0 0 442.3 138.7" style="enable-background:new 0 0 442.3 138.7;" xml:space="preserve">
<style type="text/css">
	.st0{fill:#FFFFFF;}
</style>
<g>
	<path class="st0" d="M93.3,20.6c5.8-3.5,11.8-8.2,17.2-13.6c4.2-4.3-14.3-2.4-18.7,1.4C87,12.5,82.1,17,77.6,22.2
		C75,25.3,87.6,24,93.3,20.6z M259.9,67.7c5.8-3.5,16.7-12,22.1-17.4c4.2-4.3-14.3-2.4-18.7,1.4c-4.8,4.1-12.8,11.4-17.2,16.7
		C243.4,71.4,254.1,71.1,259.9,67.7z M427.8,104c-23.7-14.8-88.4,11-113,13.9c-4.6,0.6-6.3-0.6-5.2-3.7c2.1-6,10.3-17.1,11.9-20.9
		c1.6-3.6,1.3-16.2-17.2-16.2c-15.1,0-29,7-38.8,15.9c-9.3,7.9-27.3,23.6-38.4,23.6c-11.5,0,22.1-34.7,24-36.4
		c5-4.7-10.8-3.5-17.4,1.5c-2.6,2-13.2,13.3-19.8,24.3c-19.1,13.2-38.1,16.3-29.1,5.3c4.8-5.9,13-13.7,18.6-19.9
		c7.8-8.7,6.4-14.4-10.9-14.4c-23.1,0-25.6,2-38.6,17.3c-2.4,2.8-1.2,10,1.3,7.5c15.6-15.5,15.3-14.2,36-14.2
		c-3.3,3.5-9.3,7.1-19.3,19.8c-9,11.4-3.1,20.6,9.6,20.6c7,0,17.6-3.3,27.2-10.1c-1.2,5.9,1.2,10.2,10.3,10.2
		c10.5,0,22.5-6.3,32.4-13.2c-1.2,7.5,2.6,13.2,13.8,13.2c8.6,0,18.5-3.4,28.8-12.3c-0.1,6.8,4.7,12.2,13.7,12.2
		c21.8,0,97.2-27.4,123.4-11.6C434.5,118.4,434.4,108.1,427.8,104z M271.2,118.2c-14.3,0,14.3-32.7,33-32.7
		C315.4,85.5,285,118.2,271.2,118.2z M146.9,102.5c-5.6,5.5-17.9,14.6-28.6,14.6c-7.9,0,7.9-14.2,15.7-25.7
		c7.5-10.9,1.4-14.2-4.8-14.2C114,77.2,99.1,88,88.9,95.5c3.1-4.1,7.8-9.3,12.9-16c2.8-3.7-14-2.4-18.3,3.3c-1.4,1.8-2.9,3.8-4.5,6
		c-14.6,17.6-36.7,29.4-47.5,29.4c-6,0-8.2-4.2-4.5-12c9.1-18.9,40.3-54.9,57.2-70.7c7.7-7.2-15.4-4.3-20.7,1.1
		c-4.4,4.4-8.8,8.9-13,13.4C31.8,69.7,15.1,90.3,9.7,107c-3.7,11.4-0.3,21.6,13.8,21.6c11.6,0,24.4-5.7,35.3-12.6
		c-2.7,3.7-5.1,7-7.1,9.6c-3.1,4.2,12.5,2.6,15.8-1.5c12.3-15.8,42-35.2,50.2-35.2c7.5,0-18.4,19.4-18.1,31.2
		c0.3,15.6,36.4,6,48.6-10C150.2,107.7,148.7,100.8,146.9,102.5z"/>
</g>
</svg>
